<svg width="282" height="100" viewBox="0 0 282 100" xmlns="http://www.w3.org/2000/svg"><g fill="none" fill-rule="evenodd"><path d="M50.025 99.925c-12.8 0-25.6-4.9-35.4-14.6-19.5-19.5-19.5-51.2 0-70.7s51.2-19.5 70.7 0c6.6 6.6 6.6 17.3 0 23.9l-23.4 23.4c-6.6 6.6-17.3 6.6-23.9 0-6.6-6.6-6.6-17.3 0-23.9 6.6-6.6 17.3-6.6 23.9 0l2.5 2.5-5.7 5.7-2.5-2.5c-3.5-3.5-9.1-3.5-12.6 0s-3.5 9.1 0 12.6 9.1 3.5 12.6 0l23.4-23.4c3.5-3.5 3.5-9.1 0-12.6-16.4-16.4-43-16.4-59.4 0s-16.4 43 0 59.4 43 16.4 59.4 0c3.5-3.5 3.5-9.1 0-12.6l-7.7-7.7 5.7-5.7 7.7 7.7c6.6 6.6 6.6 17.3 0 23.9-9.6 9.7-22.4 14.6-35.3 14.6z" fill="#45DE91"/><g fill="#1E273D"><path d="M123.8 33.5c8.1 0 13.3 4.3 14.4 11.4h-7.1c-.9-3.4-3.4-5.3-7.3-5.3-5.5 0-8.8 4.3-8.8 10.4 0 6.1 3.4 10.4 8.9 10.4 4.1 0 6.3-1.9 7.2-5.3h7.1c-1.2 7.1-6.4 11.4-14.5 11.4-10.3 0-16.1-7.1-16.1-16.5 0-9.3 6.2-16.5 16.2-16.5zM144.5 34.1h7.2V66h-7.2zM159.7 34.1h14.5c7.9 0 12.2 3.9 12.2 10.2 0 4.5-2.3 8.1-6.6 9.7l7.8 12.1h-7.8L172.7 55h-5.8v11h-7.2V34.1zm7.2 5.6v9.7h6.9c3.4 0 5.2-2.1 5.2-5 0-2.8-1.9-4.6-5.2-4.6h-6.9v-.1zM207.6 33.5c8.1 0 13.3 4.3 14.4 11.4h-7.1c-.9-3.4-3.4-5.3-7.3-5.3-5.5 0-8.8 4.3-8.8 10.4 0 6.1 3.4 10.4 8.9 10.4 4.1 0 6.3-1.9 7.2-5.3h7.1c-1.2 7.1-6.4 11.4-14.5 11.4-10.3 0-16.1-7.1-16.1-16.5 0-9.3 6.2-16.5 16.2-16.5zM228.3 34.1h7.2V60h15.1v6h-22.3zM256.9 34.1h23.9V40H264v7h13.6v5.5H264v7.7h17.3v5.9h-24.5v-32z"/></g></g></svg>